<svg xmlns="http://www.w3.org/2000/svg" width="12" height="12" viewBox="0 0 12 12">
    <g fill="none" fill-rule="evenodd">
        <path fill="#EF4123" d="M11.541 2.29L9.711.459a1.567 1.567 0 0 0-2.217 0L.459 7.494a1.567 1.567 0 0 0 0 2.216l1.831 1.831a1.567 1.567 0 0 0 2.217 0l7.034-7.035a1.567 1.567 0 0 0 0-2.216zM8.208 5.212l-.526.525-.525-.525h1.05zm-2.786.998l-.526.526-.525-.526h1.05zm-.105-.946h1.051l-.525.526-.526-.526zm.998 1.84l-.525.525-.526-.525h1.051zm-.104-.946h1.05l-.525.525-.525-.525zm.578-1.314l-.526-.526h1.051l-.525.526zm-.368-1.42l-.526.526-.526-.526h1.052zm-.946.947l-.526.525-.526-.525h1.052zm-.946.946l-.526.525-.526-.525h1.052zM3.057 6.788l-.526-.525h1.051l-.525.525zm.368.368h1.05l-.525.526-.525-.526zm.893.894H5.37l-.525.526-.526-.526zm1.42 1.42l-.526-.527h1.051l-.526.526zm.945-.947l-.525-.526h1.051l-.526.526zm.947-.946l-.526-.526h1.051l-.525.526zm.946-.946l-.526-.526h1.051l-.525.526z"/>
        <path fill="#FFB3B0" d="M2.29.459L.46 2.29a1.567 1.567 0 0 0 0 2.216l1.126 1.126 4.047-4.047L4.507.459a1.567 1.567 0 0 0-2.217 0M11.541 7.494l-1.126-1.126-4.047 4.047 1.126 1.126a1.567 1.567 0 0 0 2.216 0l1.831-1.831a1.567 1.567 0 0 0 0-2.216"/>
    </g>
</svg>
