<svg xmlns="http://www.w3.org/2000/svg" width="124" height="96" viewBox="0 0 124 96">
    <g fill="none" fill-rule="evenodd">
        <g opacity=".6">
            <g transform="translate(.381 .98)">
                <rect width="122.68" height="43.299" fill="#DCE4F5" rx="4"/>
                <circle cx="21.619" cy="22.021" r="13" fill="#C7D1EC"/>
                <rect width="74" height="7" x="39.619" y="13.021" fill="#C7D1EC" rx="3.5"/>
                <rect width="25.258" height="5.773" x="39.619" y="24.021" fill="#C7D1EC" rx="2.887"/>
            </g>
            <g transform="translate(0 52)">
                <rect width="122.68" height="43.299" fill="#DCE4F5" rx="4"/>
                <circle cx="21.619" cy="22.021" r="13" fill="#C7D1EC"/>
                <rect width="74" height="7" x="39.619" y="13.021" fill="#C7D1EC" rx="3.5"/>
                <rect width="25.258" height="5.773" x="39.619" y="24.021" fill="#C7D1EC" rx="2.887"/>
            </g>
        </g>
        <path fill="#C7D1EC" d="M73.629 24.68c14.61 0 26.453 11.844 26.453 26.454 0 4.03-.901 7.851-2.514 11.27l10.702 10.542a8.814 8.814 0 0 1 2.637 6.28c0 2.359-.95 4.618-2.636 6.279a8.99 8.99 0 0 1-6.31 2.58 8.994 8.994 0 0 1-6.078-2.359l-.232-.22-10.642-10.484a26.35 26.35 0 0 1-11.38 2.566c-14.61 0-26.454-11.844-26.454-26.454 0-14.61 11.844-26.454 26.454-26.454zm20.687 42.943a26.613 26.613 0 0 1-4.092 4.113l9.638 9.495a2.99 2.99 0 0 0 2.099.853c.79 0 1.546-.308 2.1-.853a2.814 2.814 0 0 0 .846-2.005c0-.68-.25-1.338-.704-1.855l-.143-.15zM73.629 30.68c-11.296 0-20.454 9.158-20.454 20.454 0 11.296 9.158 20.454 20.454 20.454 11.296 0 20.453-9.158 20.453-20.454 0-11.296-9.157-20.454-20.453-20.454zm.164 3.825c9.093 0 16.465 7.372 16.465 16.465a4 4 0 0 1-7.995.2l-.005-.2a8.465 8.465 0 0 0-8.211-8.461l-.254-.004a4 4 0 1 1 0-8z"/>
    </g>
</svg>
